# Blender 4.3.2
# www.blender.org
o @fence_1
v -2.000000 1.000000 0.000000
v -1.000000 1.000000 0.000000
v -1.000000 0.000000 -0.000001
v -2.000000 0.000000 -0.000001
v -1.000000 1.000000 0.000000
v 0.000000 1.000000 0.000000
v 0.000000 0.000000 -0.000001
v -1.000000 0.000000 -0.000001
v 0.000000 1.000000 0.000000
v 1.000000 1.000000 0.000000
v 1.000000 0.000000 -0.000001
v 0.000000 0.000000 -0.000001
v 1.000000 1.000000 0.000000
v 2.000000 1.000000 0.000000
v 2.000000 0.000000 -0.000001
v 1.000000 0.000000 -0.000001
vn -0.0000 -0.0000 1.0000
vt 0.859375 0.421875
vt 0.875000 0.437500
vt 0.859375 0.437500
vt 0.875000 0.421875
vt 0.890625 0.437500
vt 0.890625 0.421875
vt 0.906250 0.437500
vt 0.906250 0.421875
vt 0.921875 0.437500
vt 0.921875 0.421875
s 0
f 4/1/1 2/2/1 1/3/1
f 8/4/1 6/5/1 5/2/1
f 12/6/1 10/7/1 9/5/1
f 16/8/1 14/9/1 13/7/1
f 4/1/1 3/4/1 2/2/1
f 8/4/1 7/6/1 6/5/1
f 12/6/1 11/8/1 10/7/1
f 16/8/1 15/10/1 14/9/1
