# Blender 4.3.2
# www.blender.org
o Plane.002
v -1.000000 0.000000 0.000000
v 1.500000 0.000000 0.000000
v -1.000000 4.000000 0.000000
v -1.500000 2.666667 0.000000
v -1.000000 1.333333 0.000000
v -0.500000 0.000000 0.000000
v 0.500000 0.000000 0.000000
v 1.500000 1.333333 0.000000
v 0.000000 4.000000 0.000000
v -0.500000 4.000000 0.000000
v -0.500000 1.333333 0.000000
v -0.500000 2.666667 0.000000
v 0.500000 1.333333 0.000000
v 0.500000 2.666667 0.000000
vn -0.0000 -0.0000 1.0000
vt 0.062520 0.916672
vt 0.031310 1.000015
vt 0.000060 0.916681
vt 0.093750 1.000000
vt 0.062530 1.000007
vt 0.062500 0.750000
vt 0.031270 0.833338
vt 0.031250 0.750000
vt 0.125000 0.750000
vt 0.062510 0.833336
vt 0.124990 0.833331
vt 0.187500 0.750000
vt 0.124980 0.916662
vt 0.187470 0.833326
s 0
f 12/1/1 3/2/1 4/3/1
f 12/1/1 9/4/1 10/5/1
f 6/6/1 5/7/1 1/8/1
f 5/7/1 12/1/1 4/3/1
f 7/9/1 11/10/1 6/6/1
f 13/11/1 12/1/1 11/10/1
f 2/12/1 13/11/1 7/9/1
f 12/1/1 10/5/1 3/2/1
f 12/1/1 14/13/1 9/4/1
f 6/6/1 11/10/1 5/7/1
f 5/7/1 11/10/1 12/1/1
f 7/9/1 13/11/1 11/10/1
f 13/11/1 14/13/1 12/1/1
f 2/12/1 8/14/1 13/11/1
