# Blender 4.3.2
# www.blender.org
o Plane.011
v -0.250000 0.000000 0.000000
v 0.250000 0.000000 0.000000
v -0.375000 1.500000 0.000000
v 0.375000 1.500000 0.000000
v -0.250000 0.750000 0.000000
v 0.000000 0.000000 0.000000
v 0.250000 0.750000 0.000000
v 0.000000 1.500000 0.000000
v 0.000000 0.750000 0.000000
vn -0.0000 -0.0000 1.0000
vt 0.105495 0.916141
s 0
f 7/1/1 8/1/1 9/1/1
f 5/1/1 8/1/1 3/1/1
f 6/1/1 5/1/1 1/1/1
f 2/1/1 9/1/1 6/1/1
f 7/1/1 4/1/1 8/1/1
f 5/1/1 9/1/1 8/1/1
f 6/1/1 9/1/1 5/1/1
f 2/1/1 7/1/1 9/1/1
